<?xml version="1.0" standalone="no"?>
<!DOCTYPE svg PUBLIC "-//W3C//DTD SVG 20010904//EN"
 "http://www.w3.org/TR/2001/REC-SVG-20010904/DTD/svg10.dtd">
<svg version="1.0" xmlns="http://www.w3.org/2000/svg"
 width="298.000000pt" height="298.000000pt" viewBox="0 0 298.000000 298.000000"
 preserveAspectRatio="xMidYMid meet">

<g transform="translate(0.000000,298.000000) scale(0.100000,-0.100000)"
fill="#000000" stroke="none">
<path d="M1351 2410 c-29 -33 -59 -60 -67 -60 -9 0 -47 19 -85 41 -65 39 -71
40 -87 25 -10 -8 -26 -40 -35 -69 -9 -30 -26 -62 -37 -72 -20 -18 -24 -18 -85
-2 -35 9 -73 17 -84 17 -28 0 -41 -35 -41 -106 0 -75 -20 -94 -101 -94 -103 0
-112 -13 -82 -121 20 -72 16 -78 -80 -124 -78 -38 -82 -56 -33 -131 20 -29 36
-62 36 -73 0 -11 -25 -41 -60 -72 -33 -29 -60 -59 -60 -67 0 -9 10 -26 22 -39
l21 -23 -111 0 c-93 0 -112 -3 -112 -15 0 -13 138 -15 1186 -15 944 0 1185 3
1182 13 -3 9 -43 13 -142 15 l-137 3 20 26 c12 14 21 30 21 35 0 6 -27 35 -60
65 -37 35 -60 64 -60 77 0 12 16 46 35 76 19 30 35 62 35 72 0 20 -32 44 -75
54 -16 4 -43 13 -58 21 -26 13 -28 18 -25 56 3 23 11 63 18 89 18 62 10 70
-83 77 -41 4 -81 12 -89 19 -10 8 -17 40 -22 89 -3 42 -10 81 -15 86 -6 6 -41
4 -91 -4 -57 -9 -87 -10 -98 -2 -9 5 -27 36 -40 69 -39 96 -43 98 -133 43 -68
-43 -89 -39 -145 26 -31 35 -56 55 -69 55 -14 0 -41 -21 -74 -60z m276 -100
c163 -41 331 -147 438 -278 114 -137 180 -309 192 -494 6 -96 5 -98 -15 -98
-20 0 -22 5 -22 69 0 348 -255 673 -597 762 -109 28 -288 28 -398 -1 -224 -58
-412 -210 -515 -417 -55 -112 -71 -173 -77 -300 -5 -99 -8 -113 -23 -113 -23
0 -28 21 -23 105 5 89 35 215 67 288 80 181 243 347 420 427 60 27 196 65 266
74 63 8 208 -4 287 -24z m28 -74 c314 -107 519 -373 542 -703 l6 -93 -146 0
-147 0 39 41 c44 45 66 97 57 135 -7 26 -56 54 -96 54 -16 0 -20 6 -20 33 0
18 -5 38 -12 45 -17 17 -859 17 -876 0 -28 -28 -6 -141 47 -245 l31 -63 -216
0 -217 0 6 103 c19 336 254 619 587 707 112 30 304 23 415 -14z m295 -631 c26
-31 -25 -101 -102 -141 -16 -9 -32 -13 -34 -11 -3 3 8 31 24 63 17 33 33 69
37 82 8 26 55 31 75 7z"/>
<path d="M1448 2135 c4 -40 0 -52 -25 -88 -36 -50 -45 -77 -45 -129 1 -42 21
-82 56 -110 32 -27 38 -21 16 15 -29 46 -25 66 25 143 57 87 61 136 14 183
-17 17 -34 31 -39 31 -4 0 -5 -20 -2 -45z"/>
<path d="M1340 2114 c0 -16 -12 -47 -25 -69 -29 -47 -32 -95 -8 -136 19 -32
40 -41 23 -10 -16 31 -12 53 20 101 35 53 39 99 10 125 -20 18 -20 17 -20 -11z"/>
<path d="M1517 1933 c-26 -38 -33 -63 -21 -76 8 -8 57 89 52 104 -2 6 -16 -6
-31 -28z"/>
<path d="M414 1323 c-34 -24 -46 -112 -19 -150 18 -26 56 -36 89 -23 39 14 31
29 -12 23 -28 -4 -42 -1 -52 12 -18 22 -19 87 -1 109 17 20 60 21 67 1 9 -23
26 -18 22 8 -2 18 -10 22 -43 25 -22 1 -45 -1 -51 -5z"/>
<path d="M606 1308 c-23 -38 -28 -65 -16 -107 17 -64 68 -80 110 -36 31 33 34
113 5 145 -26 28 -80 27 -99 -2z m84 -17 c13 -25 13 -77 0 -100 -26 -49 -80
-18 -80 45 0 48 16 74 45 74 14 0 29 -8 35 -19z"/>
<path d="M800 1320 c0 -5 5 -10 10 -10 6 0 10 -30 10 -69 0 -39 -4 -73 -10
-76 -20 -12 -10 -25 19 -25 32 0 49 15 27 23 -18 7 -9 57 10 57 8 0 14 -4 14
-10 0 -5 5 -10 10 -10 6 0 10 14 10 30 0 29 -13 40 -25 20 -13 -21 -25 -9 -25
25 0 31 3 35 25 35 16 0 25 -6 25 -15 0 -8 5 -15 10 -15 6 0 10 11 10 25 0 24
-3 25 -60 25 -33 0 -60 -4 -60 -10z"/>
<path d="M990 1321 c0 -5 5 -13 10 -16 6 -3 10 -35 10 -71 0 -48 -4 -66 -15
-70 -8 -4 -12 -10 -9 -15 7 -12 64 -11 64 1 0 6 -4 10 -10 10 -5 0 -10 14 -10
30 0 31 17 39 38 18 9 -9 12 -5 12 20 0 18 -4 32 -10 32 -5 0 -10 -4 -10 -10
0 -5 -7 -10 -15 -10 -10 0 -15 11 -15 35 0 30 3 35 24 35 13 0 26 -7 30 -15 9
-23 28 -18 24 8 -3 19 -10 22 -60 25 -34 2 -58 -1 -58 -7z"/>
<path d="M1175 1321 c-3 -5 -1 -12 5 -16 13 -8 13 -145 0 -145 -5 0 -10 -4
-10 -10 0 -6 27 -10 60 -10 59 0 60 1 60 28 -1 25 -2 26 -15 9 -21 -28 -59
-19 -63 16 -4 29 14 37 36 15 9 -9 12 -5 12 20 0 32 -14 44 -23 20 -8 -21 -29
7 -25 32 4 27 32 34 52 14 20 -20 26 -18 26 11 0 24 -3 25 -54 25 -30 0 -57
-4 -61 -9z"/>
<path d="M1376 1321 c-14 -5 -16 -10 -8 -15 15 -9 17 -146 2 -146 -5 0 -10 -4
-10 -10 0 -6 27 -10 60 -10 45 0 62 4 67 15 7 21 -4 32 -19 17 -7 -7 -22 -12
-35 -12 -19 0 -23 5 -23 30 0 20 5 30 15 30 8 0 15 -5 15 -11 0 -5 5 -7 10 -4
13 8 13 55 1 55 -6 0 -13 -4 -16 -10 -12 -20 -25 -9 -25 20 0 25 4 30 25 30
14 0 25 -4 25 -10 0 -5 5 -10 10 -10 6 0 10 9 10 20 0 15 -7 20 -29 20 -16 0
-35 2 -43 4 -7 3 -22 1 -32 -3z"/>
<path d="M1798 1316 c-15 -7 -24 -22 -26 -42 -3 -26 2 -33 35 -50 41 -22 50
-50 20 -68 -15 -9 -21 -6 -37 14 l-20 25 0 -27 c0 -21 6 -29 26 -34 35 -9 72
10 80 40 8 32 1 42 -47 67 -27 13 -39 26 -37 37 4 23 58 30 58 8 0 -9 5 -16
10 -16 6 0 10 11 10 24 0 28 -37 39 -72 22z"/>
<path d="M1950 1310 c0 -5 5 -10 10 -10 6 0 10 -30 10 -70 0 -40 -4 -70 -10
-70 -18 0 -11 -27 8 -27 33 -2 45 6 32 22 -6 7 -10 24 -8 37 2 19 10 23 46 26
41 3 42 2 42 -27 0 -16 -4 -33 -10 -36 -20 -12 -9 -25 20 -25 29 0 40 13 20
25 -5 3 -10 37 -10 76 0 39 4 69 10 69 6 0 10 5 10 10 0 6 -13 10 -30 10 -16
0 -30 -4 -30 -10 0 -5 5 -10 10 -10 6 0 10 -13 10 -30 0 -29 -2 -30 -45 -30
-43 0 -45 1 -45 30 0 17 5 30 10 30 6 0 10 5 10 10 0 6 -13 10 -30 10 -16 0
-30 -4 -30 -10z"/>
<path d="M2221 1294 c-33 -42 -25 -131 13 -156 21 -14 63 -8 81 12 10 11 20
41 22 67 4 39 1 53 -17 76 -29 36 -71 37 -99 1z m77 -6 c7 -7 12 -36 12 -65 0
-47 -3 -55 -25 -65 -37 -17 -60 9 -60 66 0 63 39 98 73 64z"/>
<path d="M2426 1303 c9 -19 8 -113 -1 -150 -5 -20 -1 -23 25 -23 16 0 30 5 30
10 0 6 -5 10 -11 10 -6 0 -9 12 -7 27 2 20 10 29 32 34 79 21 51 109 -35 109
-36 0 -40 -2 -33 -17z m72 -12 c22 -13 11 -56 -15 -59 -19 -3 -23 1 -23 26 0
40 12 50 38 33z"/>
<path d="M270 1035 c0 -12 29 -15 183 -17 l182 -3 -3 -41 c-4 -52 3 -57 97
-65 84 -7 101 -20 101 -78 0 -62 12 -113 28 -119 9 -3 46 2 83 12 87 22 100
15 134 -73 14 -38 33 -72 41 -75 18 -7 48 5 104 43 25 17 52 31 62 31 9 0 39
-27 68 -60 67 -77 84 -78 139 -6 22 30 50 57 61 61 15 5 41 -6 90 -35 84 -51
98 -46 130 40 32 87 50 96 133 70 98 -30 117 -13 117 111 0 64 21 79 111 79
80 0 94 11 84 69 l-7 41 211 2 c132 2 211 7 211 13 0 7 -402 11 -1180 13
-1037 2 -1180 0 -1180 -13z m582 -89 c127 -128 266 -200 450 -232 251 -44 511
45 698 237 49 51 74 70 85 65 14 -5 9 -15 -27 -58 -171 -205 -463 -320 -728
-287 -169 20 -307 77 -434 178 -63 50 -146 141 -146 160 0 27 35 5 102 -63z
m1162 65 c7 -11 -93 -106 -157 -150 -291 -198 -695 -169 -951 70 -42 39 -76
75 -76 80 0 12 1177 12 1184 0z"/>
</g>
</svg>
